
<svg xmlns="http://www.w3.org/2000/svg" width="1551" height="496" viewBox="0 0 1551 496" role="img" aria-label="GitHub repository clones table">
<style>
  .card { font-family: "Segoe UI", Roboto, "Helvetica Neue", Arial, sans-serif; }
  .title { font-weight:700; font-size:16px; fill: #0b1220; }
  .meta  { font-size:12px; fill:#374151; opacity:0.9; }
  .th    { font-size:12px; font-weight:700; fill:#0b1220; }
  .td    { font-size:12px; fill:#0b1220; }
  .muted { font-size:11px; fill:#6b7280; }
  .row-even { fill: #ffffff; }
  .row-odd  { fill: #f8fafc; }
  .table-border { stroke: #e6eaf2; stroke-width: 1; fill: none; }
  @media (prefers-color-scheme: dark) {
    .title, .meta, .th, .td, .muted { fill: #ffffff; }
    .row-even { fill: #0b1220; }
    .row-odd  { fill: #071026; }
    .table-border { stroke: #0f172a; }
  }
</style>
<text x="18" y="32" class="title card">GitHub repositories — HelixCipher</text>
<text x="18" y="50" class="meta card">Generated: 2026-01-11T03:43:53.501788Z · Mode: Public repos only · Total repos: 14 · Total clones (sum of visible): 190</text>
<rect x="18" y="30" width="1515" height="448" rx="8" class="row-even"/>
<rect x="18" y="30" width="1515" height="448" class="table-border"/>

  <text x="30" y="58" class="th card">Repo</text>

  <text x="444" y="58" class="th card">Description</text>

  <text x="672" y="58" class="th card">Language</text>

  <text x="813" y="58" class="th card">Stars</text>

  <text x="877" y="58" class="th card">Forks</text>

  <text x="941" y="58" class="th card">Watchers</text>

  <text x="1005" y="58" class="th card">Open issues</text>

  <text x="1095" y="58" class="th card">Last push</text>

  <text x="1257" y="58" class="th card">Size KB</text>

  <text x="1337" y="58" class="th card">Clones (14d)</text>

  <text x="1435" y="58" class="th card">Unique clones (14d)</text>

<line x1="18" y1="58" x2="1533" y2="58" stroke="#e6eaf2" />

  
  <rect x="18" y="58" width="1515" height="26" class="row-even" opacity="0.95"/>
  
    
    
      <text x="30" y="74" class="td card">clone-sweeper</text>
    
  
    
    
      
      
        <text x="444" y="74" class="muted card">-</text>
      
    
  
    
    
      <text x="672" y="74" class="td card">Python</text>
    
  
    
    
      <text x="813" y="74" class="td card">0</text>
    
  
    
    
      <text x="877" y="74" class="td card">0</text>
    
  
    
    
      <text x="941" y="74" class="td card">0</text>
    
  
    
    
      <text x="1005" y="74" class="td card">0</text>
    
  
    
    
      <text x="1095" y="74" class="td card">2026-01-10 18:23:36</text>
    
  
    
    
      <text x="1257" y="74" class="td card">68</text>
    
  
    
    
      <text x="1337" y="74" class="td card">11</text>
    
  
    
    
      <text x="1435" y="74" class="td card">11</text>
    
  

  
  <rect x="18" y="84" width="1515" height="26" class="row-odd" opacity="0.95"/>
  
    
    
      <text x="30" y="100" class="td card">HelixCipher</text>
    
  
    
    
      
      
        <text x="444" y="100" class="muted card">-</text>
      
    
  
    
    
      <text x="672" y="100" class="td card"></text>
    
  
    
    
      <text x="813" y="100" class="td card">0</text>
    
  
    
    
      <text x="877" y="100" class="td card">0</text>
    
  
    
    
      <text x="941" y="100" class="td card">0</text>
    
  
    
    
      <text x="1005" y="100" class="td card">0</text>
    
  
    
    
      <text x="1095" y="100" class="td card">2026-01-08 20:54:27</text>
    
  
    
    
      <text x="1257" y="100" class="td card">9422</text>
    
  
    
    
      <text x="1337" y="100" class="td card">46</text>
    
  
    
    
      <text x="1435" y="100" class="td card">29</text>
    
  

  
  <rect x="18" y="110" width="1515" height="26" class="row-even" opacity="0.95"/>
  
    
    
      <text x="30" y="126" class="td card">one-persons-feature-is-another-persons-exploit</text>
    
  
    
    
      
      
        <text x="444" y="126" class="muted card">-</text>
      
    
  
    
    
      <text x="672" y="126" class="td card">Jupyter Notebook</text>
    
  
    
    
      <text x="813" y="126" class="td card">0</text>
    
  
    
    
      <text x="877" y="126" class="td card">0</text>
    
  
    
    
      <text x="941" y="126" class="td card">0</text>
    
  
    
    
      <text x="1005" y="126" class="td card">0</text>
    
  
    
    
      <text x="1095" y="126" class="td card">2026-01-05 07:57:22</text>
    
  
    
    
      <text x="1257" y="126" class="td card">97111</text>
    
  
    
    
      <text x="1337" y="126" class="td card">12</text>
    
  
    
    
      <text x="1435" y="126" class="td card">10</text>
    
  

  
  <rect x="18" y="136" width="1515" height="26" class="row-odd" opacity="0.95"/>
  
    
    
      <text x="30" y="152" class="td card">gif-maker</text>
    
  
    
    
      
      
        <text x="444" y="152" class="muted card">-</text>
      
    
  
    
    
      <text x="672" y="152" class="td card">JavaScript</text>
    
  
    
    
      <text x="813" y="152" class="td card">0</text>
    
  
    
    
      <text x="877" y="152" class="td card">0</text>
    
  
    
    
      <text x="941" y="152" class="td card">0</text>
    
  
    
    
      <text x="1005" y="152" class="td card">0</text>
    
  
    
    
      <text x="1095" y="152" class="td card">2026-01-05 07:56:37</text>
    
  
    
    
      <text x="1257" y="152" class="td card">24354</text>
    
  
    
    
      <text x="1337" y="152" class="td card">79</text>
    
  
    
    
      <text x="1435" y="152" class="td card">53</text>
    
  

  
  <rect x="18" y="162" width="1515" height="26" class="row-even" opacity="0.95"/>
  
    
    
      <text x="30" y="178" class="td card">Dynamic-webscraper-WIP-</text>
    
  
    
    
      
      
        <text x="444" y="178" class="muted card">-</text>
      
    
  
    
    
      <text x="672" y="178" class="td card">Python</text>
    
  
    
    
      <text x="813" y="178" class="td card">0</text>
    
  
    
    
      <text x="877" y="178" class="td card">0</text>
    
  
    
    
      <text x="941" y="178" class="td card">0</text>
    
  
    
    
      <text x="1005" y="178" class="td card">0</text>
    
  
    
    
      <text x="1095" y="178" class="td card">2025-12-19 09:14:24</text>
    
  
    
    
      <text x="1257" y="178" class="td card">8320</text>
    
  
    
    
      <text x="1337" y="178" class="td card">9</text>
    
  
    
    
      <text x="1435" y="178" class="td card">8</text>
    
  

  
  <rect x="18" y="188" width="1515" height="26" class="row-odd" opacity="0.95"/>
  
    
    
      <text x="30" y="204" class="td card">ai-agent</text>
    
  
    
    
      
      
        <text x="444" y="204" class="muted card">-</text>
      
    
  
    
    
      <text x="672" y="204" class="td card">Python</text>
    
  
    
    
      <text x="813" y="204" class="td card">0</text>
    
  
    
    
      <text x="877" y="204" class="td card">0</text>
    
  
    
    
      <text x="941" y="204" class="td card">0</text>
    
  
    
    
      <text x="1005" y="204" class="td card">0</text>
    
  
    
    
      <text x="1095" y="204" class="td card">2025-12-19 09:13:15</text>
    
  
    
    
      <text x="1257" y="204" class="td card">13</text>
    
  
    
    
      <text x="1337" y="204" class="td card">6</text>
    
  
    
    
      <text x="1435" y="204" class="td card">6</text>
    
  

  
  <rect x="18" y="214" width="1515" height="26" class="row-even" opacity="0.95"/>
  
    
    
      <text x="30" y="230" class="td card">podcast-retriever</text>
    
  
    
    
      
      
        <text x="444" y="230" class="muted card">-</text>
      
    
  
    
    
      <text x="672" y="230" class="td card">Python</text>
    
  
    
    
      <text x="813" y="230" class="td card">0</text>
    
  
    
    
      <text x="877" y="230" class="td card">0</text>
    
  
    
    
      <text x="941" y="230" class="td card">0</text>
    
  
    
    
      <text x="1005" y="230" class="td card">0</text>
    
  
    
    
      <text x="1095" y="230" class="td card">2025-12-19 09:12:29</text>
    
  
    
    
      <text x="1257" y="230" class="td card">10</text>
    
  
    
    
      <text x="1337" y="230" class="td card">4</text>
    
  
    
    
      <text x="1435" y="230" class="td card">4</text>
    
  

  
  <rect x="18" y="240" width="1515" height="26" class="row-odd" opacity="0.95"/>
  
    
    
      <text x="30" y="256" class="td card">ai-job-finder-WIP-</text>
    
  
    
    
      
      
        <text x="444" y="256" class="muted card">-</text>
      
    
  
    
    
      <text x="672" y="256" class="td card">Python</text>
    
  
    
    
      <text x="813" y="256" class="td card">0</text>
    
  
    
    
      <text x="877" y="256" class="td card">0</text>
    
  
    
    
      <text x="941" y="256" class="td card">0</text>
    
  
    
    
      <text x="1005" y="256" class="td card">0</text>
    
  
    
    
      <text x="1095" y="256" class="td card">2025-12-19 09:11:41</text>
    
  
    
    
      <text x="1257" y="256" class="td card">9</text>
    
  
    
    
      <text x="1337" y="256" class="td card">3</text>
    
  
    
    
      <text x="1435" y="256" class="td card">3</text>
    
  

  
  <rect x="18" y="266" width="1515" height="26" class="row-even" opacity="0.95"/>
  
    
    
      <text x="30" y="282" class="td card">playwright-pixelscan</text>
    
  
    
    
      
      
        <text x="444" y="282" class="muted card">-</text>
      
    
  
    
    
      <text x="672" y="282" class="td card">Python</text>
    
  
    
    
      <text x="813" y="282" class="td card">1</text>
    
  
    
    
      <text x="877" y="282" class="td card">0</text>
    
  
    
    
      <text x="941" y="282" class="td card">1</text>
    
  
    
    
      <text x="1005" y="282" class="td card">0</text>
    
  
    
    
      <text x="1095" y="282" class="td card">2025-12-19 09:07:33</text>
    
  
    
    
      <text x="1257" y="282" class="td card">10</text>
    
  
    
    
      <text x="1337" y="282" class="td card">4</text>
    
  
    
    
      <text x="1435" y="282" class="td card">4</text>
    
  

  
  <rect x="18" y="292" width="1515" height="26" class="row-odd" opacity="0.95"/>
  
    
    
      <text x="30" y="308" class="td card">Heat-Pump-Contribution-Analysis-Using-Real-Energy-Data</text>
    
  
    
    
      
      
        <text x="444" y="308" class="muted card">-</text>
      
    
  
    
    
      <text x="672" y="308" class="td card">Jupyter Notebook</text>
    
  
    
    
      <text x="813" y="308" class="td card">0</text>
    
  
    
    
      <text x="877" y="308" class="td card">0</text>
    
  
    
    
      <text x="941" y="308" class="td card">0</text>
    
  
    
    
      <text x="1005" y="308" class="td card">0</text>
    
  
    
    
      <text x="1095" y="308" class="td card">2025-04-12 07:50:49</text>
    
  
    
    
      <text x="1257" y="308" class="td card">4169</text>
    
  
    
    
      <text x="1337" y="308" class="td card">4</text>
    
  
    
    
      <text x="1435" y="308" class="td card">4</text>
    
  

  
  <rect x="18" y="318" width="1515" height="26" class="row-even" opacity="0.95"/>
  
    
    
      <text x="30" y="334" class="td card">E-commerce-Conversion-Prediction</text>
    
  
    
    
      
      
        <text x="444" y="334" class="muted card">-</text>
      
    
  
    
    
      <text x="672" y="334" class="td card">Jupyter Notebook</text>
    
  
    
    
      <text x="813" y="334" class="td card">0</text>
    
  
    
    
      <text x="877" y="334" class="td card">0</text>
    
  
    
    
      <text x="941" y="334" class="td card">0</text>
    
  
    
    
      <text x="1005" y="334" class="td card">0</text>
    
  
    
    
      <text x="1095" y="334" class="td card">2025-03-12 21:28:28</text>
    
  
    
    
      <text x="1257" y="334" class="td card">1396</text>
    
  
    
    
      <text x="1337" y="334" class="td card">3</text>
    
  
    
    
      <text x="1435" y="334" class="td card">3</text>
    
  

  
  <rect x="18" y="344" width="1515" height="26" class="row-odd" opacity="0.95"/>
  
    
    
      <text x="30" y="360" class="td card">CAN-T-SEE-THE-FOREST-FOR-ALL-THE-TREES</text>
    
  
    
    
      
      
        <text x="444" y="360" class="muted card">-</text>
      
    
  
    
    
      <text x="672" y="360" class="td card">Jupyter Notebook</text>
    
  
    
    
      <text x="813" y="360" class="td card">0</text>
    
  
    
    
      <text x="877" y="360" class="td card">0</text>
    
  
    
    
      <text x="941" y="360" class="td card">0</text>
    
  
    
    
      <text x="1005" y="360" class="td card">0</text>
    
  
    
    
      <text x="1095" y="360" class="td card">2025-03-12 21:04:57</text>
    
  
    
    
      <text x="1257" y="360" class="td card">135</text>
    
  
    
    
      <text x="1337" y="360" class="td card">2</text>
    
  
    
    
      <text x="1435" y="360" class="td card">2</text>
    
  

  
  <rect x="18" y="370" width="1515" height="26" class="row-even" opacity="0.95"/>
  
    
    
      <text x="30" y="386" class="td card">data-processing</text>
    
  
    
    
      
      
        <text x="444" y="386" class="muted card">-</text>
      
    
  
    
    
      <text x="672" y="386" class="td card">Jupyter Notebook</text>
    
  
    
    
      <text x="813" y="386" class="td card">0</text>
    
  
    
    
      <text x="877" y="386" class="td card">0</text>
    
  
    
    
      <text x="941" y="386" class="td card">0</text>
    
  
    
    
      <text x="1005" y="386" class="td card">0</text>
    
  
    
    
      <text x="1095" y="386" class="td card">2025-03-12 20:49:43</text>
    
  
    
    
      <text x="1257" y="386" class="td card">1885</text>
    
  
    
    
      <text x="1337" y="386" class="td card">2</text>
    
  
    
    
      <text x="1435" y="386" class="td card">2</text>
    
  

  
  <rect x="18" y="396" width="1515" height="26" class="row-odd" opacity="0.95"/>
  
    
    
      <text x="30" y="412" class="td card">Convolutional-Neural-Networks-CNNs-from-scratch</text>
    
  
    
    
      
      
        <text x="444" y="412" class="muted card">-</text>
      
    
  
    
    
      <text x="672" y="412" class="td card">Jupyter Notebook</text>
    
  
    
    
      <text x="813" y="412" class="td card">0</text>
    
  
    
    
      <text x="877" y="412" class="td card">0</text>
    
  
    
    
      <text x="941" y="412" class="td card">0</text>
    
  
    
    
      <text x="1005" y="412" class="td card">0</text>
    
  
    
    
      <text x="1095" y="412" class="td card">2025-03-12 19:40:36</text>
    
  
    
    
      <text x="1257" y="412" class="td card">9563</text>
    
  
    
    
      <text x="1337" y="412" class="td card">5</text>
    
  
    
    
      <text x="1435" y="412" class="td card">4</text>
    
  

<text x="18" y="" class="muted card">Note: GitHub traffic/clones shows recent ~14 days and requires owner access for analytics. If you see 'N/A' clone stats, the token may not have permission.</text>
</svg>