
<svg xmlns="http://www.w3.org/2000/svg" width="820" height="612" viewBox="0 0 820 612" role="img" aria-label="GitHub repository clone statistics">
<style>
  .card  { font-family: "Segoe UI", Roboto, "Helvetica Neue", Arial, sans-serif; }
  .title { font-weight: 700; font-size: 18px; fill: #0b1220; }
  .meta  { font-weight: 400; font-size: 12px; fill: #374151; opacity: 0.95; }
  .label { font-weight: 600; font-size: 12px; fill: #0b1220; }
  .count { font-weight: 700; font-size: 12px; fill: #0b1220; text-anchor: start; }
  .count-small { font-weight: 600; font-size: 11px; fill:#6b7280; text-anchor: start; }
  .muted { font-size:12px; fill:#6b7280; }

  .bar-clone { fill: #1f6feb; rx:6; }
  .bar-uniq  { fill: #06b6d4; rx:6; }
  .bar-comb  { fill: #16a34a; rx:6; }

  .bar-bg { fill: #e5e7eb; rx:6; }
  @media (prefers-color-scheme: dark) {
    .title, .meta, .label, .count, .count-small, .muted { fill: #ffffff; }
    .meta, .count-small { opacity: 0.9; }
  }
</style>

<rect x="0" y="0" width="820" height="612" rx="12" fill="transparent"/>
<text x="18" y="34" class="title card">GitHub repos — HelixCipher</text>
<text x="18" y="54" class="meta card">Repos: 30 · Clones: 808 · Uniques: 387 · Combined: 1195 · Downloads (14d): 0 · Downloads (total): 0 · Public repos only</text>

<!-- LEGEND: colored squares + labels -->
<g id="legend">
  <rect x="18" y="70" width="12" height="12" class="bar-clone"/>
  <text x="36" y="80" class="muted card">Clones (14d)</text>

  <rect x="198" y="70" width="12" height="12" class="bar-uniq"/>
  <text x="216" y="80" class="muted card">Unique cloners (14d)</text>

  <rect x="438" y="70" width="12" height="12" class="bar-comb"/>
  <text x="456" y="80" class="muted card">Combined</text>
</g>



  
  <!-- repository label -->
  <text x="18" y="102" class="label card">clone-sweeper</text>

  <!-- CLONES bar (top) -->
  <rect x="175" y="116" width="545" height="18" class="bar-bg"/>
  <rect x="175" y="116" width="545" height="18" class="bar-clone"/>
  <text x="732" y="128" class="count card">390</text>

  <!-- UNIQUES bar (middle) -->
  <rect x="175" y="142" width="545" height="18" class="bar-bg"/>
  <rect x="175" y="142" width="257" height="18" class="bar-uniq"/>
  <text x="732" y="154" class="count-small card">184</text>

  <!-- COMBINED bar (bottom) -->
  <rect x="175" y="168" width="545" height="18" class="bar-bg"/>
  <rect x="175" y="168" width="545" height="18" class="bar-comb"/>
  <text x="732" y="180" class="count card">574</text>

  
  <!-- repository label -->
  <text x="18" y="184" class="label card">LeakPro</text>

  <!-- CLONES bar (top) -->
  <rect x="175" y="198" width="545" height="18" class="bar-bg"/>
  <rect x="175" y="198" width="185" height="18" class="bar-clone"/>
  <text x="732" y="210" class="count card">133</text>

  <!-- UNIQUES bar (middle) -->
  <rect x="175" y="224" width="545" height="18" class="bar-bg"/>
  <rect x="175" y="224" width="37" height="18" class="bar-uniq"/>
  <text x="732" y="236" class="count-small card">27</text>

  <!-- COMBINED bar (bottom) -->
  <rect x="175" y="250" width="545" height="18" class="bar-bg"/>
  <rect x="175" y="250" width="151" height="18" class="bar-comb"/>
  <text x="732" y="262" class="count card">160</text>

  
  <!-- repository label -->
  <text x="18" y="266" class="label card">LeakPro</text>

  <!-- CLONES bar (top) -->
  <rect x="175" y="280" width="545" height="18" class="bar-bg"/>
  <rect x="175" y="280" width="185" height="18" class="bar-clone"/>
  <text x="732" y="292" class="count card">133</text>

  <!-- UNIQUES bar (middle) -->
  <rect x="175" y="306" width="545" height="18" class="bar-bg"/>
  <rect x="175" y="306" width="37" height="18" class="bar-uniq"/>
  <text x="732" y="318" class="count-small card">27</text>

  <!-- COMBINED bar (bottom) -->
  <rect x="175" y="332" width="545" height="18" class="bar-bg"/>
  <rect x="175" y="332" width="151" height="18" class="bar-comb"/>
  <text x="732" y="344" class="count card">160</text>

  
  <!-- repository label -->
  <text x="18" y="348" class="label card">HelixCipher</text>

  <!-- CLONES bar (top) -->
  <rect x="175" y="362" width="545" height="18" class="bar-bg"/>
  <rect x="175" y="362" width="33" height="18" class="bar-clone"/>
  <text x="732" y="374" class="count card">24</text>

  <!-- UNIQUES bar (middle) -->
  <rect x="175" y="388" width="545" height="18" class="bar-bg"/>
  <rect x="175" y="388" width="29" height="18" class="bar-uniq"/>
  <text x="732" y="400" class="count-small card">21</text>

  <!-- COMBINED bar (bottom) -->
  <rect x="175" y="414" width="545" height="18" class="bar-bg"/>
  <rect x="175" y="414" width="42" height="18" class="bar-comb"/>
  <text x="732" y="426" class="count card">45</text>

  
  <!-- repository label -->
  <text x="18" y="430" class="label card">dynamic-webscraper</text>

  <!-- CLONES bar (top) -->
  <rect x="175" y="444" width="545" height="18" class="bar-bg"/>
  <rect x="175" y="444" width="13" height="18" class="bar-clone"/>
  <text x="732" y="456" class="count card">10</text>

  <!-- UNIQUES bar (middle) -->
  <rect x="175" y="470" width="545" height="18" class="bar-bg"/>
  <rect x="175" y="470" width="13" height="18" class="bar-uniq"/>
  <text x="732" y="482" class="count-small card">10</text>

  <!-- COMBINED bar (bottom) -->
  <rect x="175" y="496" width="545" height="18" class="bar-bg"/>
  <rect x="175" y="496" width="18" height="18" class="bar-comb"/>
  <text x="732" y="508" class="count card">20</text>

  
  <!-- repository label -->
  <text x="18" y="512" class="label card">machine-learning</text>

  <!-- CLONES bar (top) -->
  <rect x="175" y="526" width="545" height="18" class="bar-bg"/>
  <rect x="175" y="526" width="9" height="18" class="bar-clone"/>
  <text x="732" y="538" class="count card">7</text>

  <!-- UNIQUES bar (middle) -->
  <rect x="175" y="552" width="545" height="18" class="bar-bg"/>
  <rect x="175" y="552" width="9" height="18" class="bar-uniq"/>
  <text x="732" y="564" class="count-small card">7</text>

  <!-- COMBINED bar (bottom) -->
  <rect x="175" y="578" width="545" height="18" class="bar-bg"/>
  <rect x="175" y="578" width="13" height="18" class="bar-comb"/>
  <text x="732" y="590" class="count card">14</text>


</svg>