
<svg xmlns="http://www.w3.org/2000/svg" width="760" height="300" viewBox="0 0 760 300" role="img" aria-label="GitHub repository clone statistics">
<style>
  .card  { font-family: "Segoe UI", Roboto, "Helvetica Neue", Arial, sans-serif; }
  .title { font-weight: 700; font-size: 18px; fill: #0b1220; }
  .meta  { font-weight: 400; font-size: 12px; fill: #374151; opacity: 0.95; }
  .label { font-weight: 500; font-size: 12px; fill: #0b1220; }
  .count { font-weight: 700; font-size: 12px; fill: #0b1220; }
  .bar-bg { fill: #e5e7eb; rx:6; }
  .bar { fill: #1f6feb; rx:6; }
  @media (prefers-color-scheme: dark) {
    .title, .meta, .label, .count { fill: #ffffff; }
    .meta { opacity: 0.9; }
  }
</style>
<rect x="0" y="0" width="760" height="300" rx="12" fill="transparent"/>
<text x="18" y="34" class="title card">GitHub repos — HelixCipher</text>
<text x="18" y="54" class="meta card">Total repos: 14 · Total reported clones: 189 · Public repos only</text>

  <text x="18" y="90" class="label card">gif-maker</text>
  <rect x="385" y="74" width="291" height="18" class="bar-bg"/>
  <rect x="385" y="74" width="291" height="18" class="bar"/>
  <text x="688" y="90" class="count card">79</text>

  <text x="18" y="120" class="label card">HelixCipher</text>
  <rect x="385" y="104" width="291" height="18" class="bar-bg"/>
  <rect x="385" y="104" width="169" height="18" class="bar"/>
  <text x="688" y="120" class="count card">46</text>

  <text x="18" y="150" class="label card">one-persons-feature-is-another-persons-exploit</text>
  <rect x="385" y="134" width="291" height="18" class="bar-bg"/>
  <rect x="385" y="134" width="44" height="18" class="bar"/>
  <text x="688" y="150" class="count card">12</text>

  <text x="18" y="180" class="label card">clone-sweeper</text>
  <rect x="385" y="164" width="291" height="18" class="bar-bg"/>
  <rect x="385" y="164" width="40" height="18" class="bar"/>
  <text x="688" y="180" class="count card">11</text>

  <text x="18" y="210" class="label card">Dynamic-webscraper-WIP-</text>
  <rect x="385" y="194" width="291" height="18" class="bar-bg"/>
  <rect x="385" y="194" width="33" height="18" class="bar"/>
  <text x="688" y="210" class="count card">9</text>

  <text x="18" y="240" class="label card">ai-agent</text>
  <rect x="385" y="224" width="291" height="18" class="bar-bg"/>
  <rect x="385" y="224" width="22" height="18" class="bar"/>
  <text x="688" y="240" class="count card">6</text>

</svg>