
<svg xmlns="http://www.w3.org/2000/svg" width="820" height="612" viewBox="0 0 820 612" role="img" aria-label="GitHub repository clone statistics">
<style>
  .card  { font-family: "Segoe UI", Roboto, "Helvetica Neue", Arial, sans-serif; }
  .title { font-weight: 700; font-size: 18px; fill: #0b1220; }
  .meta  { font-weight: 400; font-size: 12px; fill: #374151; opacity: 0.95; }
  .label { font-weight: 600; font-size: 12px; fill: #0b1220; }
  .count { font-weight: 700; font-size: 12px; fill: #0b1220; text-anchor: start; }
  .count-small { font-weight: 600; font-size: 11px; fill:#6b7280; text-anchor: start; }
  .muted { font-size:12px; fill:#6b7280; }

  .bar-clone { fill: #1f6feb; rx:6; }
  .bar-uniq  { fill: #06b6d4; rx:6; }
  .bar-comb  { fill: #16a34a; rx:6; }

  .bar-bg { fill: #e5e7eb; rx:6; }
  @media (prefers-color-scheme: dark) {
    .title, .meta, .label, .count, .count-small, .muted { fill: #ffffff; }
    .meta, .count-small { opacity: 0.9; }
  }
</style>

<rect x="0" y="0" width="820" height="612" rx="12" fill="transparent"/>
<text x="18" y="34" class="title card">GitHub repos — HelixCipher</text>
<text x="18" y="54" class="meta card">Repos: 32 · Clones: 1512 · Uniques: 858 · Combined: 2370 · Downloads (14d): 0 · Downloads (total): 0 · Public repos only</text>

<!-- LEGEND: colored squares + labels -->
<g id="legend">
  <rect x="18" y="70" width="12" height="12" class="bar-clone"/>
  <text x="36" y="80" class="muted card">Clones (14d)</text>

  <rect x="198" y="70" width="12" height="12" class="bar-uniq"/>
  <text x="216" y="80" class="muted card">Unique cloners (14d)</text>

  <rect x="438" y="70" width="12" height="12" class="bar-comb"/>
  <text x="456" y="80" class="muted card">Combined</text>
</g>



  
  <!-- repository label -->
  <text x="18" y="102" class="label card">clone-sweeper</text>

  <!-- CLONES bar (top) -->
  <rect x="190" y="116" width="530" height="18" class="bar-bg"/>
  <rect x="190" y="116" width="530" height="18" class="bar-clone"/>
  <text x="732" y="128" class="count card">1042</text>

  <!-- UNIQUES bar (middle) -->
  <rect x="190" y="142" width="530" height="18" class="bar-bg"/>
  <rect x="190" y="142" width="221" height="18" class="bar-uniq"/>
  <text x="732" y="154" class="count-small card">436</text>

  <!-- COMBINED bar (bottom) -->
  <rect x="190" y="168" width="530" height="18" class="bar-bg"/>
  <rect x="190" y="168" width="530" height="18" class="bar-comb"/>
  <text x="732" y="180" class="count card">1478</text>

  
  <!-- repository label -->
  <text x="18" y="184" class="label card">HelixCipher</text>

  <!-- CLONES bar (top) -->
  <rect x="190" y="198" width="530" height="18" class="bar-bg"/>
  <rect x="190" y="198" width="29" height="18" class="bar-clone"/>
  <text x="732" y="210" class="count card">58</text>

  <!-- UNIQUES bar (middle) -->
  <rect x="190" y="224" width="530" height="18" class="bar-bg"/>
  <rect x="190" y="224" width="23" height="18" class="bar-uniq"/>
  <text x="732" y="236" class="count-small card">47</text>

  <!-- COMBINED bar (bottom) -->
  <rect x="190" y="250" width="530" height="18" class="bar-bg"/>
  <rect x="190" y="250" width="37" height="18" class="bar-comb"/>
  <text x="732" y="262" class="count card">105</text>

  
  <!-- repository label -->
  <text x="18" y="266" class="label card">pages</text>

  <!-- CLONES bar (top) -->
  <rect x="190" y="280" width="530" height="18" class="bar-bg"/>
  <rect x="190" y="280" width="23" height="18" class="bar-clone"/>
  <text x="732" y="292" class="count card">46</text>

  <!-- UNIQUES bar (middle) -->
  <rect x="190" y="306" width="530" height="18" class="bar-bg"/>
  <rect x="190" y="306" width="15" height="18" class="bar-uniq"/>
  <text x="732" y="318" class="count-small card">30</text>

  <!-- COMBINED bar (bottom) -->
  <rect x="190" y="332" width="530" height="18" class="bar-bg"/>
  <rect x="190" y="332" width="27" height="18" class="bar-comb"/>
  <text x="732" y="344" class="count card">76</text>

  
  <!-- repository label -->
  <text x="18" y="348" class="label card">machine-learning</text>

  <!-- CLONES bar (top) -->
  <rect x="190" y="362" width="530" height="18" class="bar-bg"/>
  <rect x="190" y="362" width="13" height="18" class="bar-clone"/>
  <text x="732" y="374" class="count card">26</text>

  <!-- UNIQUES bar (middle) -->
  <rect x="190" y="388" width="530" height="18" class="bar-bg"/>
  <rect x="190" y="388" width="10" height="18" class="bar-uniq"/>
  <text x="732" y="400" class="count-small card">20</text>

  <!-- COMBINED bar (bottom) -->
  <rect x="190" y="414" width="530" height="18" class="bar-bg"/>
  <rect x="190" y="414" width="16" height="18" class="bar-comb"/>
  <text x="732" y="426" class="count card">46</text>

  
  <!-- repository label -->
  <text x="18" y="430" class="label card">project-jackheart</text>

  <!-- CLONES bar (top) -->
  <rect x="190" y="444" width="530" height="18" class="bar-bg"/>
  <rect x="190" y="444" width="13" height="18" class="bar-clone"/>
  <text x="732" y="456" class="count card">26</text>

  <!-- UNIQUES bar (middle) -->
  <rect x="190" y="470" width="530" height="18" class="bar-bg"/>
  <rect x="190" y="470" width="11" height="18" class="bar-uniq"/>
  <text x="732" y="482" class="count-small card">22</text>

  <!-- COMBINED bar (bottom) -->
  <rect x="190" y="496" width="530" height="18" class="bar-bg"/>
  <rect x="190" y="496" width="17" height="18" class="bar-comb"/>
  <text x="732" y="508" class="count card">48</text>

  
  <!-- repository label -->
  <text x="18" y="512" class="label card">digit-classifier-api</text>

  <!-- CLONES bar (top) -->
  <rect x="190" y="526" width="530" height="18" class="bar-bg"/>
  <rect x="190" y="526" width="12" height="18" class="bar-clone"/>
  <text x="732" y="538" class="count card">25</text>

  <!-- UNIQUES bar (middle) -->
  <rect x="190" y="552" width="530" height="18" class="bar-bg"/>
  <rect x="190" y="552" width="12" height="18" class="bar-uniq"/>
  <text x="732" y="564" class="count-small card">24</text>

  <!-- COMBINED bar (bottom) -->
  <rect x="190" y="578" width="530" height="18" class="bar-bg"/>
  <rect x="190" y="578" width="17" height="18" class="bar-comb"/>
  <text x="732" y="590" class="count card">49</text>


</svg>