
<svg xmlns="http://www.w3.org/2000/svg" width="820" height="612" viewBox="0 0 820 612" role="img" aria-label="GitHub repository clone statistics">
<style>
  .card  { font-family: "Segoe UI", Roboto, "Helvetica Neue", Arial, sans-serif; }
  .title { font-weight: 700; font-size: 18px; fill: #0b1220; }
  .meta  { font-weight: 400; font-size: 12px; fill: #374151; opacity: 0.95; }
  .label { font-weight: 600; font-size: 12px; fill: #0b1220; }
  .count { font-weight: 700; font-size: 12px; fill: #0b1220; text-anchor: start; }
  .count-small { font-weight: 600; font-size: 11px; fill:#6b7280; text-anchor: start; }
  .muted { font-size:12px; fill:#6b7280; }

  .bar-clone { fill: #1f6feb; rx:6; }
  .bar-uniq  { fill: #06b6d4; rx:6; }
  .bar-comb  { fill: #16a34a; rx:6; }

  .bar-bg { fill: #e5e7eb; rx:6; }
  @media (prefers-color-scheme: dark) {
    .title, .meta, .label, .count, .count-small, .muted { fill: #ffffff; }
    .meta, .count-small { opacity: 0.9; }
  }
</style>

<rect x="0" y="0" width="820" height="612" rx="12" fill="transparent"/>
<text x="18" y="34" class="title card">GitHub repos — HelixCipher</text>
<text x="18" y="54" class="meta card">Repos: 21 · Clones: 411 · Uniques: 301 · Combined: 712 · Downloads (14d): 0 · Downloads (total): 0 · Public repos only</text>

<!-- LEGEND: colored squares + labels -->
<g id="legend">
  <rect x="18" y="70" width="12" height="12" class="bar-clone"/>
  <text x="36" y="80" class="muted card">Clones (14d)</text>

  <rect x="198" y="70" width="12" height="12" class="bar-uniq"/>
  <text x="216" y="80" class="muted card">Unique cloners (14d)</text>

  <rect x="438" y="70" width="12" height="12" class="bar-comb"/>
  <text x="456" y="80" class="muted card">Combined</text>
</g>



  
  <!-- repository label -->
  <text x="18" y="102" class="label card">clone-sweeper</text>

  <!-- CLONES bar (top) -->
  <rect x="167" y="116" width="553" height="18" class="bar-bg"/>
  <rect x="167" y="116" width="553" height="18" class="bar-clone"/>
  <text x="732" y="128" class="count card">140</text>

  <!-- UNIQUES bar (middle) -->
  <rect x="167" y="142" width="553" height="18" class="bar-bg"/>
  <rect x="167" y="142" width="553" height="18" class="bar-uniq"/>
  <text x="732" y="154" class="count-small card">88</text>

  <!-- COMBINED bar (bottom) -->
  <rect x="167" y="168" width="553" height="18" class="bar-bg"/>
  <rect x="167" y="168" width="553" height="18" class="bar-comb"/>
  <text x="732" y="180" class="count card">228</text>

  
  <!-- repository label -->
  <text x="18" y="184" class="label card">project-jackheart</text>

  <!-- CLONES bar (top) -->
  <rect x="167" y="198" width="553" height="18" class="bar-bg"/>
  <rect x="167" y="198" width="414" height="18" class="bar-clone"/>
  <text x="732" y="210" class="count card">105</text>

  <!-- UNIQUES bar (middle) -->
  <rect x="167" y="224" width="553" height="18" class="bar-bg"/>
  <rect x="167" y="224" width="395" height="18" class="bar-uniq"/>
  <text x="732" y="236" class="count-small card">63</text>

  <!-- COMBINED bar (bottom) -->
  <rect x="167" y="250" width="553" height="18" class="bar-bg"/>
  <rect x="167" y="250" width="407" height="18" class="bar-comb"/>
  <text x="732" y="262" class="count card">168</text>

  
  <!-- repository label -->
  <text x="18" y="266" class="label card">HelixCipher</text>

  <!-- CLONES bar (top) -->
  <rect x="167" y="280" width="553" height="18" class="bar-bg"/>
  <rect x="167" y="280" width="193" height="18" class="bar-clone"/>
  <text x="732" y="292" class="count card">49</text>

  <!-- UNIQUES bar (middle) -->
  <rect x="167" y="306" width="553" height="18" class="bar-bg"/>
  <rect x="167" y="306" width="232" height="18" class="bar-uniq"/>
  <text x="732" y="318" class="count-small card">37</text>

  <!-- COMBINED bar (bottom) -->
  <rect x="167" y="332" width="553" height="18" class="bar-bg"/>
  <rect x="167" y="332" width="208" height="18" class="bar-comb"/>
  <text x="732" y="344" class="count card">86</text>

  
  <!-- repository label -->
  <text x="18" y="348" class="label card">Amnesiac-Shell</text>

  <!-- CLONES bar (top) -->
  <rect x="167" y="362" width="553" height="18" class="bar-bg"/>
  <rect x="167" y="362" width="75" height="18" class="bar-clone"/>
  <text x="732" y="374" class="count card">19</text>

  <!-- UNIQUES bar (middle) -->
  <rect x="167" y="388" width="553" height="18" class="bar-bg"/>
  <rect x="167" y="388" width="113" height="18" class="bar-uniq"/>
  <text x="732" y="400" class="count-small card">18</text>

  <!-- COMBINED bar (bottom) -->
  <rect x="167" y="414" width="553" height="18" class="bar-bg"/>
  <rect x="167" y="414" width="89" height="18" class="bar-comb"/>
  <text x="732" y="426" class="count card">37</text>

  
  <!-- repository label -->
  <text x="18" y="430" class="label card">Changeling</text>

  <!-- CLONES bar (top) -->
  <rect x="167" y="444" width="553" height="18" class="bar-bg"/>
  <rect x="167" y="444" width="63" height="18" class="bar-clone"/>
  <text x="732" y="456" class="count card">16</text>

  <!-- UNIQUES bar (middle) -->
  <rect x="167" y="470" width="553" height="18" class="bar-bg"/>
  <rect x="167" y="470" width="87" height="18" class="bar-uniq"/>
  <text x="732" y="482" class="count-small card">14</text>

  <!-- COMBINED bar (bottom) -->
  <rect x="167" y="496" width="553" height="18" class="bar-bg"/>
  <rect x="167" y="496" width="72" height="18" class="bar-comb"/>
  <text x="732" y="508" class="count card">30</text>

  
  <!-- repository label -->
  <text x="18" y="512" class="label card">image-resizer</text>

  <!-- CLONES bar (top) -->
  <rect x="167" y="526" width="553" height="18" class="bar-bg"/>
  <rect x="167" y="526" width="55" height="18" class="bar-clone"/>
  <text x="732" y="538" class="count card">14</text>

  <!-- UNIQUES bar (middle) -->
  <rect x="167" y="552" width="553" height="18" class="bar-bg"/>
  <rect x="167" y="552" width="87" height="18" class="bar-uniq"/>
  <text x="732" y="564" class="count-small card">14</text>

  <!-- COMBINED bar (bottom) -->
  <rect x="167" y="578" width="553" height="18" class="bar-bg"/>
  <rect x="167" y="578" width="67" height="18" class="bar-comb"/>
  <text x="732" y="590" class="count card">28</text>


</svg>