
<svg xmlns="http://www.w3.org/2000/svg" width="820" height="582" viewBox="0 0 820 582" role="img" aria-label="GitHub repository clone statistics">
<style>
  .card  { font-family: "Segoe UI", Roboto, "Helvetica Neue", Arial, sans-serif; }
  .title { font-weight: 700; font-size: 18px; fill: #0b1220; }
  .meta  { font-weight: 400; font-size: 12px; fill: #374151; opacity: 0.95; }
  .label { font-weight: 600; font-size: 12px; fill: #0b1220; }
  .count { font-weight: 700; font-size: 12px; fill: #0b1220; text-anchor: start; }
  .count-small { font-weight: 600; font-size: 11px; fill:#6b7280; text-anchor: start; }

  .bar-clone { fill: #1f6feb; rx:6; }
  .bar-uniq  { fill: #06b6d4; rx:6; }
  .bar-comb  { fill: #16a34a; rx:6; }

  .bar-bg { fill: #e5e7eb; rx:6; }
  @media (prefers-color-scheme: dark) {
    .title, .meta, .label, .count, .count-small { fill: #ffffff; }
    .meta, .count-small { opacity: 0.9; }
  }
</style>

<rect x="0" y="0" width="820" height="582" rx="12" fill="transparent"/>
<text x="18" y="34" class="title card">GitHub repos — HelixCipher</text>
<text x="18" y="54" class="meta card">Total repos: 14 · Clones: 190 · Unique Clones: 143 · Total reported clones: 333 · Public repos only</text>



  
  <!-- repository label -->
  <text x="18" y="90" class="label card">gif-maker</text>

  <!-- CLONES bar (top) -->
  <rect x="385" y="104" width="335" height="18" class="bar-bg"/>
  <rect x="385" y="104" width="335" height="18" class="bar-clone"/>
  <text x="732" y="116" class="count card">79</text>

  <!-- UNIQUES bar (middle) -->
  <rect x="385" y="130" width="335" height="18" class="bar-bg"/>
  <rect x="385" y="130" width="335" height="18" class="bar-uniq"/>
  <text x="732" y="142" class="count-small card">53</text>

  <!-- COMBINED bar (bottom) -->
  <rect x="385" y="156" width="335" height="18" class="bar-bg"/>
  <rect x="385" y="156" width="335" height="18" class="bar-comb"/>
  <text x="732" y="168" class="count card">132</text>

  
  <!-- repository label -->
  <text x="18" y="172" class="label card">HelixCipher</text>

  <!-- CLONES bar (top) -->
  <rect x="385" y="186" width="335" height="18" class="bar-bg"/>
  <rect x="385" y="186" width="195" height="18" class="bar-clone"/>
  <text x="732" y="198" class="count card">46</text>

  <!-- UNIQUES bar (middle) -->
  <rect x="385" y="212" width="335" height="18" class="bar-bg"/>
  <rect x="385" y="212" width="183" height="18" class="bar-uniq"/>
  <text x="732" y="224" class="count-small card">29</text>

  <!-- COMBINED bar (bottom) -->
  <rect x="385" y="238" width="335" height="18" class="bar-bg"/>
  <rect x="385" y="238" width="190" height="18" class="bar-comb"/>
  <text x="732" y="250" class="count card">75</text>

  
  <!-- repository label -->
  <text x="18" y="254" class="label card">one-persons-feature-is-another-persons-exploit</text>

  <!-- CLONES bar (top) -->
  <rect x="385" y="268" width="335" height="18" class="bar-bg"/>
  <rect x="385" y="268" width="50" height="18" class="bar-clone"/>
  <text x="732" y="280" class="count card">12</text>

  <!-- UNIQUES bar (middle) -->
  <rect x="385" y="294" width="335" height="18" class="bar-bg"/>
  <rect x="385" y="294" width="63" height="18" class="bar-uniq"/>
  <text x="732" y="306" class="count-small card">10</text>

  <!-- COMBINED bar (bottom) -->
  <rect x="385" y="320" width="335" height="18" class="bar-bg"/>
  <rect x="385" y="320" width="55" height="18" class="bar-comb"/>
  <text x="732" y="332" class="count card">22</text>

  
  <!-- repository label -->
  <text x="18" y="336" class="label card">clone-sweeper</text>

  <!-- CLONES bar (top) -->
  <rect x="385" y="350" width="335" height="18" class="bar-bg"/>
  <rect x="385" y="350" width="46" height="18" class="bar-clone"/>
  <text x="732" y="362" class="count card">11</text>

  <!-- UNIQUES bar (middle) -->
  <rect x="385" y="376" width="335" height="18" class="bar-bg"/>
  <rect x="385" y="376" width="69" height="18" class="bar-uniq"/>
  <text x="732" y="388" class="count-small card">11</text>

  <!-- COMBINED bar (bottom) -->
  <rect x="385" y="402" width="335" height="18" class="bar-bg"/>
  <rect x="385" y="402" width="55" height="18" class="bar-comb"/>
  <text x="732" y="414" class="count card">22</text>

  
  <!-- repository label -->
  <text x="18" y="418" class="label card">Dynamic-webscraper-WIP-</text>

  <!-- CLONES bar (top) -->
  <rect x="385" y="432" width="335" height="18" class="bar-bg"/>
  <rect x="385" y="432" width="38" height="18" class="bar-clone"/>
  <text x="732" y="444" class="count card">9</text>

  <!-- UNIQUES bar (middle) -->
  <rect x="385" y="458" width="335" height="18" class="bar-bg"/>
  <rect x="385" y="458" width="50" height="18" class="bar-uniq"/>
  <text x="732" y="470" class="count-small card">8</text>

  <!-- COMBINED bar (bottom) -->
  <rect x="385" y="484" width="335" height="18" class="bar-bg"/>
  <rect x="385" y="484" width="43" height="18" class="bar-comb"/>
  <text x="732" y="496" class="count card">17</text>

  
  <!-- repository label -->
  <text x="18" y="500" class="label card">ai-agent</text>

  <!-- CLONES bar (top) -->
  <rect x="385" y="514" width="335" height="18" class="bar-bg"/>
  <rect x="385" y="514" width="25" height="18" class="bar-clone"/>
  <text x="732" y="526" class="count card">6</text>

  <!-- UNIQUES bar (middle) -->
  <rect x="385" y="540" width="335" height="18" class="bar-bg"/>
  <rect x="385" y="540" width="37" height="18" class="bar-uniq"/>
  <text x="732" y="552" class="count-small card">6</text>

  <!-- COMBINED bar (bottom) -->
  <rect x="385" y="566" width="335" height="18" class="bar-bg"/>
  <rect x="385" y="566" width="30" height="18" class="bar-comb"/>
  <text x="732" y="578" class="count card">12</text>


</svg>